{
.appVersion = "3257";
.formatVersion = 3;
DisplayStrings = (

glyphs = (
{
glyphname = A;
lastChange = "2024-04-10 15:09:01 +0000";
layers = (
{
layerId = m01;
shapes = (
{
closed = 1;
nodes = (
(351,800,l),
(409,700,l),
(65,100,l),
(-20,0,l),
(370,0,l),
(312,100,l),
(341,150,l),
(717,150,l),
(746,100,l),
(689,0,l),
(1081,0,l),
(992,100,l),
(646,700,l),
(704,800,l)
);
},
{
closed = 1;
nodes = (
(529,470,l),
(633,300,l),
(430,300,l)
);
}
);
width = 1091;
}
);
unicode = 65;
},
{
glyphname = B;
lastChange = "2024-03-19 00:29:08 +0000";
layers = (
{
layerId = m01;
shapes = (
{
closed = 1;
nodes = (
(329,475,l),
(329,600,l),
(509,600,ls),
(543,600,o),
(571,572,o),
(571,538,cs),
(571,503,o),
(543,475,o),
(509,475,cs)
);
},
{
closed = 1;
nodes = (
(329,200,l),
(329,325,l),
(524,325,ls),
(558,325,o),
(586,297,o),
(586,263,cs),
(586,228,o),
(558,200,o),
(524,200,cs)
);
},
{
closed = 1;
nodes = (
(731,474,o),
(763,531,o),
(763,600,cs),
(763,710,o),
(674,800,o),
(563,800,cs),
(18,800,l),
(104,650,l),
(104,163,l),
(10,0,l),
(608,0,ls),
(732,0,o),
(833,100,o),
(833,225,cs),
(833,323,o),
(769,408,o),
(680,438,c)
);
}
);
width = 843;
}
);
unicode = 66;
},
{
glyphname = C;
lastChange = "2024-04-10 15:32:10 +0000";
layers = (
{
layerId = m01;
shapes = (
{
closed = 1;
nodes = (
(681,483,l),
(647,552,o),
(561,599,o),
(471,599,cs),
(351,599,o),
(254,510,o),
(254,400,cs),
(254,290,o),
(351,201,o),
(471,201,cs),
(571,201,o),
(651,242,o),
(697,306,c),
(801,129,l),
(720,46,o),
(603,-5,o),
(471,-5,cs),
(227,-5,o),
(29,176,o),
(29,400,cs),
(29,624,o),
(227,805,o),
(471,805,cs),
(596,805,o),
(708,758,o),
(789,684,c)
);
}
);
width = 830;
}
);
unicode = 67;
},
{
glyphname = D;
lastChange = "2024-03-19 00:29:03 +0000";
layers = (
{
layerId = m01;
shapes = (
{
closed = 1;
nodes = (
(484,-3,ls),
(705,-3,o),
(884,170,o),
(884,397,cs),
(884,625,o),
(705,797,o),
(484,797,cs),
(13,797,l),
(100,647,l),
(100,150,l),
(10,-3,l)
);
},
{
closed = 1;
nodes = (
(331,197,l),
(331,597,l),
(457,597,ls),
(567,597,o),
(657,514,o),
(657,397,cs),
(657,281,o),
(567,197,o),
(457,197,cs)
);
}
);
width = 894;
}
);
unicode = 68;
},
{
glyphname = E;
lastChange = "2023-03-06 16:14:15 +0000";
layers = (
{
layerId = m01;
shapes = (
{
closed = 1;
nodes = (
(10,803,l),
(97,653,l),
(96,153,l),
(10,3,l),
(875,3,l),
(716,282,l),
(672,203,l),
(326,203,l),
(326,328,l),
(543,328,l),
(644,503,l),
(327,503,l),
(327,626,l),
(658,626,l),
(688,579,l),
(820,803,l)
);
}
);
width = 885;
}
);
unicode = 69;
},
{
glyphname = F;
lastChange = "2024-03-19 00:28:55 +0000";
layers = (
{
layerId = m01;
shapes = (
{
closed = 1;
nodes = (
(10,800,l),
(94,657,l),
(94,146,l),
(10,0,l),
(322,0,l),
(323,325,l),
(540,325,l),
(641,500,l),
(324,500,l),
(324,623,l),
(654,623,l),
(685,576,l),
(817,800,l)
);
}
);
width = 827;
}
);
unicode = 70;
},
{
glyphname = G;
lastChange = "2024-04-10 15:31:45 +0000";
layers = (
{
layerId = m01;
shapes = (
{
closed = 1;
nodes = (
(927,3,l),
(704,388,l),
(482,388,l),
(578,221,l),
(543,206,o),
(503,198,o),
(458,198,cs),
(337,198,o),
(237,288,o),
(237,400,cs),
(237,511,o),
(337,601,o),
(458,601,cs),
(548,601,o),
(625,551,o),
(660,481,c),
(779,687,l),
(697,763,o),
(584,810,o),
(458,810,cs),
(210,810,o),
(10,626,o),
(10,400,cs),
(10,173,o),
(210,-10,o),
(458,-10,cs),
(539,-10,o),
(615,9,o),
(680,44,c),
(704,3,l)
);
}
);
width = 937;
}
);
unicode = 71;
},
{
glyphname = H;
lastChange = "2023-03-06 16:14:15 +0000";
layers = (
{
layerId = m01;
shapes = (
{
closed = 1;
nodes = (
(588,800,l),
(643,700,l),
(643,461,l),
(328,461,l),
(328,700,l),
(383,800,l),
(10,800,l),
(96,650,l),
(96,150,l),
(10,0,l),
(384,0,l),
(328,103,l),
(328,297,l),
(643,297,l),
(643,103,l),
(587,0,l),
(961,0,l),
(875,150,l),
(875,650,l),
(961,800,l)
);
}
);
width = 971;
}
);
unicode = 72;
},
{
glyphname = I;
lastChange = "2023-03-06 20:02:34 +0000";
layers = (
{
layerId = m01;
shapes = (
{
closed = 1;
nodes = (
(20,800,l),
(106,650,l),
(106,150,l),
(20,0,l),
(451,0,l),
(365,150,l),
(365,650,l),
(451,800,l)
);
}
);
width = 471;
}
);
unicode = 73;
},
{
glyphname = J;
lastChange = "2023-03-06 19:58:47 +0000";
layers = (
{
layerId = m01;
shapes = (
{
closed = 1;
nodes = (
(688,654,l),
(776,805,l),
(370,805,l),
(456,654,l),
(456,278,ls),
(456,221,o),
(402,186,o),
(350,186,cs),
(296,186,o),
(249,228,o),
(242,280,c),
(312,403,l),
(10,402,l),
(10,296,ls),
(10,130,o),
(160,-5,o),
(357,-5,cs),
(540,-5,o),
(688,121,o),
(688,295,cs)
);
}
);
width = 786;
}
);
unicode = 74;
},
{
glyphname = K;
lastChange = "2023-03-06 19:52:57 +0000";
layers = (
{
layerId = m01;
shapes = (
{
closed = 1;
nodes = (
(534,800,l),
(563,750,l),
(332,438,l),
(332,700,l),
(388,800,l),
(10,800,l),
(96,650,l),
(96,150,l),
(10,0,l),
(389,0,l),
(332,103,l),
(332,364,l),
(534,100,l),
(478,0,l),
(934,0,l),
(823,100,l),
(594,404,l),
(838,730,l),
(922,800,l)
);
}
);
width = 944;
}
);
unicode = 75;
},
{
glyphname = L;
lastChange = "2023-03-06 16:14:15 +0000";
layers = (
{
layerId = m01;
shapes = (
{
closed = 1;
nodes = (
(10,800,l),
(97,650,l),
(97,150,l),
(10,0,l),
(699,0,l),
(815,200,l),
(352,200,l),
(352,650,l),
(438,800,l)
);
}
);
width = 825;
}
);
unicode = 76;
},
{
glyphname = M;
lastChange = "2023-03-06 16:14:15 +0000";
layers = (
{
layerId = m01;
shapes = (
{
closed = 1;
nodes = (
(761,800,l),
(588,500,l),
(414,800,l),
(10,800,l),
(97,650,l),
(97,150,l),
(10,0,l),
(386,0,l),
(328,104,l),
(328,550,l),
(588,100,l),
(847,550,l),
(847,104,l),
(789,0,l),
(1165,0,l),
(1078,150,l),
(1078,650,l),
(1165,800,l)
);
}
);
width = 1175;
}
);
unicode = 77;
},
{
glyphname = N;
lastChange = "2023-03-06 16:14:15 +0000";
layers = (
{
layerId = m01;
shapes = (
{
closed = 1;
nodes = (
(616,800,l),
(702,650,l),
(702,301,l),
(414,800,l),
(10,800,l),
(96,650,l),
(96,150,l),
(10,0,l),
(385,0,l),
(327,104,l),
(327,550,l),
(645,0,l),
(992,0,l),
(933,99,l),
(933,650,l),
(1020,800,l)
);
}
);
width = 1030;
}
);
unicode = 78;
},
{
glyphname = O;
lastChange = "2024-03-19 00:25:37 +0000";
layers = (
{
layerId = m01;
shapes = (
{
closed = 1;
nodes = (
(289,608,o),
(220,500,o),
(220,401,cs),
(220,301,o),
(289,193,o),
(439,193,cs),
(590,193,o),
(659,301,o),
(659,401,cs),
(659,500,o),
(590,608,o),
(439,608,cs)
);
},
{
closed = 1;
nodes = (
(10,647,o),
(202,818,o),
(439,818,cs),
(676,818,o),
(869,647,o),
(869,401,cs),
(869,154,o),
(676,-17,o),
(439,-17,cs),
(202,-17,o),
(10,154,o),
(10,401,cs)
);
}
);
width = 879;
}
);
unicode = 79;
},
{
glyphname = P;
lastChange = "2023-03-06 20:00:54 +0000";
layers = (
{
layerId = m01;
shapes = (
{
closed = 1;
nodes = (
(802,334,o),
(668,200,o),
(502,200,cs),
(328,200,l),
(328,103,l),
(385,0,l),
(10,0,l),
(97,150,l),
(97,650,l),
(10,800,l),
(502,800,ls),
(668,800,o),
(802,666,o),
(802,500,cs)
);
},
{
closed = 1;
nodes = (
(336,380,l),
(456,380,ls),
(522,380,o),
(576,434,o),
(576,500,cs),
(576,566,o),
(522,620,o),
(456,620,cs),
(336,620,l)
);
}
);
width = 812;
}
);
unicode = 80;
},
{
glyphname = Q;
lastChange = "2023-03-06 20:01:05 +0000";
layers = (
{
layerId = m01;
shapes = (
{
closed = 1;
nodes = (
(333,191,o),
(218,256,o),
(218,401,cs),
(218,545,o),
(333,611,o),
(439,611,cs),
(546,611,o),
(661,545,o),
(661,401,cs),
(661,361,o),
(652,327,o),
(638,299,c),
(521,401,l),
(290,401,l),
(518,203,l),
(492,195,o),
(466,191,o),
(439,191,cs)
);
},
{
closed = 1;
nodes = (
(984,-1,l),
(796,162,l),
(842,228,o),
(869,309,o),
(869,401,cs),
(869,647,o),
(676,818,o),
(439,818,cs),
(202,818,o),
(10,647,o),
(10,401,cs),
(10,154,o),
(202,-17,o),
(439,-17,cs),
(532,-17,o),
(617,9,o),
(687,56,c),
(753,-1,l)
);
}
);
width = 994;
}
);
unicode = 81;
},
{
glyphname = R;
lastChange = "2024-03-19 00:28:45 +0000";
layers = (
{
layerId = m01;
shapes = (
{
closed = 1;
nodes = (
(333,600,l),
(440,600,ls),
(496,600,o),
(540,555,o),
(540,500,cs),
(540,445,o),
(496,400,o),
(440,400,cs),
(333,400,l)
);
},
{
closed = 1;
nodes = (
(333,330,l),
(566,0,l),
(917,0,l),
(826,50,l),
(623,311,l),
(726,342,o),
(801,435,o),
(801,550,cs),
(801,688,o),
(689,800,o),
(551,800,cs),
(10,800,l),
(96,650,l),
(96,150,l),
(10,0,l),
(391,0,l),
(333,103,l)
);
}
);
width = 927;
}
);
unicode = 82;
},
{
glyphname = S;
lastChange = "2023-03-17 19:15:27 +0000";
layers = (
{
layerId = m01;
shapes = (
{
closed = 1;
nodes = (
(681,749,l),
(622,785,o),
(451,830,o),
(310,803,cs),
(199,782,o),
(113,689,o),
(99,606,cs),
(85,524,o),
(125,397,o),
(301,344,cs),
(428,306,o),
(580,309,o),
(567,244,cs),
(552,171,o),
(277,191,o),
(160,302,c),
(10,0,l),
(151,50,l),
(282,-4,o),
(469,-26,o),
(585,8,cs),
(715,45,o),
(785,106,o),
(800,206,cs),
(814,295,o),
(768,409,o),
(607,466,cs),
(456,519,o),
(302,509,o),
(310,570,cs),
(321,651,o),
(552,606,o),
(678,513,c),
(817,771,l)
);
}
);
width = 827;
}
);
unicode = 83;
},
{
glyphname = T;
lastChange = "2024-04-10 15:32:38 +0000";
layers = (
{
layerId = m01;
shapes = (
{
closed = 1;
nodes = (
(10,800,l),
(183,500,l),
(241,600,l),
(414,600,l),
(414,150,l),
(327,0,l),
(732,0,l),
(644,150,l),
(644,600,l),
(818,599,l),
(876,500,l),
(1049,800,l)
);
}
);
width = 1059;
}
);
unicode = 84;
},
{
glyphname = U;
lastChange = "2024-04-10 15:31:52 +0000";
layers = (
{
layerId = m01;
shapes = (
{
closed = 1;
nodes = (
(630,800,l),
(689,699,l),
(693,398,ls),
(693,274,o),
(595,217,o),
(502,217,cs),
(410,217,o),
(312,274,o),
(312,398,cs),
(316,699,l),
(375,800,l),
(6,800,l),
(92,650,l),
(92,389,ls),
(92,159,o),
(271,-10,o),
(502,-10,cs),
(729,-10,o),
(913,153,o),
(913,389,cs),
(913,650,l),
(999,800,l)
);
}
);
width = 1005;
}
);
unicode = 85;
},
{
glyphname = V;
lastChange = "2024-04-10 15:09:30 +0000";
layers = (
{
layerId = m01;
shapes = (
{
closed = 1;
nodes = (
(689,800,l),
(735,720,l),
(561,429,l),
(387,720,l),
(433,800,l),
(20,800,l),
(179,656,l),
(561,-10,l),
(942,656,l),
(1101,800,l)
);
}
);
width = 1121;
}
);
unicode = 86;
},
{
glyphname = W;
lastChange = "2024-04-10 15:09:42 +0000";
layers = (
{
layerId = m01;
shapes = (
{
closed = 1;
nodes = (
(952,720,l),
(790,446,l),
(674,648,l),
(557,446,l),
(398,720,l),
(446,800,l),
(2,800,l),
(148,648,l),
(529,-10,l),
(674,243,l),
(819,-10,l),
(1199,648,l),
(1345,800,l),
(904,800,l)
);
}
);
width = 1347;
}
);
unicode = 87;
},
{
glyphname = X;
lastChange = "2024-03-19 00:28:40 +0000";
layers = (
{
layerId = m01;
shapes = (
{
closed = 1;
nodes = (
(587,800,l),
(645,700,l),
(547,586,l),
(448,700,l),
(506,800,l),
(10,800,l),
(160,698,l),
(402,419,l),
(125,100,l),
(10,0,l),
(448,0,l),
(414,100,l),
(547,253,l),
(679,100,l),
(646,0,l),
(1083,0,l),
(968,100,l),
(691,419,l),
(934,698,l),
(1083,800,l)
);
}
);
width = 1093;
}
);
unicode = 88;
},
{
glyphname = Y;
lastChange = "2024-04-10 15:10:23 +0000";
layers = (
{
layerId = m01;
shapes = (
{
closed = 1;
nodes = (
(789,800,l),
(840,726,l),
(616,482,l),
(392,726,l),
(444,800,l),
(10,800,l),
(100,726,l),
(472,300,l),
(472,100,l),
(414,0,l),
(819,0,l),
(762,100,l),
(762,300,l),
(1133,726,l),
(1223,800,l)
);
}
);
width = 1233;
}
);
unicode = 89;
},
{
glyphname = Z;
lastChange = "2024-03-19 00:25:30 +0000";
layers = (
{
layerId = m01;
shapes = (
{
closed = 1;
nodes = (
(10,800,l),
(183,500,l),
(241,600,l),
(471,600,l),
(10,0,l),
(933,0,l),
(760,300,l),
(702,200,l),
(433,201,l),
(876,800,l)
);
}
);
width = 943;
}
);
unicode = 90;
},
{
glyphname = S.001;
lastChange = "2023-03-06 16:12:24 +0000";
layers = (
{
layerId = m01;
shapes = (
{
closed = 1;
nodes = (
(305,-7,o),
(133,37,o),
(10,133,c),
(147,340,l),
(224,241,l),
(296,204,o),
(377,189,o),
(448,189,cs),
(584,189,o),
(636,213,o),
(636,255,cs),
(636,295,o),
(489,299,o),
(370,311,cs),
(202,328,o),
(66,372,o),
(66,566,cs),
(66,683,o),
(162,808,o),
(436,808,cs),
(587,808,o),
(747,778,o),
(837,724,c),
(708,501,l),
(664,581,l),
(605,598,o),
(523,613,o),
(436,613,cs),
(320,613,o),
(279,598,o),
(279,558,cs),
(279,518,o),
(384,498,o),
(536,488,cs),
(671,479,o),
(864,450,o),
(864,249,cs),
(864,83,o),
(704,-7,o),
(448,-7,cs)
);
}
);
width = 874;
}
);
},
{
glyphname = S.002;
lastChange = "2023-03-06 16:14:15 +0000";
layers = (
{
layerId = m01;
shapes = (
{
closed = 1;
nodes = (
(313,498,l),
(286,498,o),
(263,520,o),
(263,548,c),
(263,576,o),
(286,598,o),
(313,598,c),
(562,598,l),
(651,542,l),
(810,798,l),
(299,798,l),
(161,798,o),
(49,686,o),
(49,548,c),
(49,410,o),
(161,298,o),
(299,298,c),
(528,298,l),
(556,298,o),
(578,276,o),
(578,248,c),
(578,220,o),
(556,198,o),
(528,198,c),
(232,198,l),
(152,248,l),
(10,-2,l),
(560,-2,l),
(698,-2,o),
(810,110,o),
(810,248,c),
(810,386,o),
(698,498,o),
(560,498,c)
);
}
);
width = 820;
}
);
},
{
glyphname = W.001;
lastChange = "2023-03-06 16:12:56 +0000";
layers = (
{
layerId = m01;
shapes = (
{
closed = 1;
nodes = (
(1032,800,l),
(1079,716,l),
(892,394,l),
(732,667,l),
(572,394,l),
(385,716,l),
(432,800,l),
(10,800,l),
(148,654,l),
(529,-11,l),
(732,337,l),
(934,-11,l),
(1317,654,l),
(1454,800,l)
);
}
);
width = 1464;
}
);
},
{
glyphname = a;
lastChange = "2024-04-10 15:28:19 +0000";
layers = (
{
layerId = m01;
shapes = (
{
closed = 1;
nodes = (
(342,200,ls),
(274,200,o),
(220,244,o),
(220,300,cs),
(220,356,o),
(274,400,o),
(342,400,cs),
(427,400,l),
(427,200,l)
);
},
{
closed = 1;
nodes = (
(629,450,l),
(716,600,l),
(342,600,ls),
(165,600,o),
(20,470,o),
(20,300,cs),
(20,130,o),
(165,0,o),
(342,0,c),
(427,143,l),
(427,0,l),
(716,0,l),
(629,150,l)
);
}
);
width = 726;
}
);
unicode = 97;
},
{
glyphname = b;
lastChange = "2024-03-23 19:30:07 +0000";
layers = (
{
layerId = m01;
shapes = (
{
closed = 1;
nodes = (
(327,200,l),
(327,400,l),
(418,400,l),
(484,400,o),
(540,354,o),
(540,300,c),
(540,246,o),
(484,200,o),
(418,200,c)
);
},
{
closed = 1;
nodes = (
(327,600,l),
(327,693,l),
(385,800,l),
(10,800,l),
(96,650,l),
(96,150,l),
(10,0,l),
(200,0,l),
(414,0,l),
(418,0,l),
(596,0,o),
(740,134,o),
(740,300,c),
(740,466,o),
(596,600,o),
(418,600,c)
);
}
);
width = 760;
}
);
unicode = 98;
},
{
glyphname = c;
lastChange = "2024-04-10 15:31:10 +0000";
layers = (
{
layerId = m01;
shapes = (
{
closed = 1;
nodes = (
(466,266,l),
(438,226,o),
(386,197,o),
(332,197,c),
(261,197,o),
(206,243,o),
(206,301,c),
(206,359,o),
(261,404,o),
(332,404,c),
(505,404,l),
(619,600,l),
(332,600,l),
(154,600,o),
(10,470,o),
(10,300,c),
(10,130,o),
(154,0,o),
(332,0,c),
(421,0,o),
(506,34,o),
(568,89,c)
);
}
);
width = 629;
}
);
unicode = 99;
},
{
glyphname = d;
lastChange = "2024-04-10 15:06:10 +0000";
layers = (
{
layerId = m01;
shapes = (
{
closed = 1;
nodes = (
(234,354,o),
(290,400,o),
(356,400,c),
(423,400,l),
(423,200,l),
(356,200,l),
(290,200,o),
(234,246,o),
(234,300,c)
);
},
{
closed = 1;
nodes = (
(654,650,l),
(740,800,l),
(365,800,l),
(423,693,l),
(423,600,l),
(332,600,l),
(154,600,o),
(10,466,o),
(10,300,c),
(10,134,o),
(154,0,o),
(332,0,c),
(336,0,l),
(550,0,l),
(740,0,l),
(654,150,l)
);
}
);
width = 750;
}
);
unicode = 100;
},
{
glyphname = e;
lastChange = "2024-04-10 15:30:44 +0000";
layers = (
{
layerId = m01;
shapes = (
{
closed = 1;
nodes = (
(705,199,l),
(477,199,l),
(709,600,l),
(322,600,ls),
(155,600,o),
(20,465,o),
(20,298,cs),
(20,131,o),
(155,-4,o),
(322,-4,cs),
(583,-4,l)
);
},
{
closed = 1;
nodes = (
(343,199,l),
(322,199,ls),
(268,199,o),
(223,243,o),
(223,298,cs),
(223,352,o),
(268,397,o),
(322,397,cs),
(454,397,l)
);
}
);
width = 709;
}
);
unicode = 101;
},
{
glyphname = f;
lastChange = "2024-04-10 15:30:25 +0000";
layers = (
{
layerId = m01;
shapes = (
{
closed = 1;
nodes = (
(360,805,o),
(200,658,o),
(200,476,c),
(200,431,l),
(111,431,l),
(10,255,l),
(200,255,l),
(200,155,l),
(113,0,l),
(480,0,l),
(414,105,l),
(413,255,l),
(559,255,l),
(663,431,l),
(411,431,l),
(410,476,l),
(410,540,o),
(478,595,o),
(557,595,c),
(627,595,o),
(686,554,o),
(701,501,c),
(817,702,l),
(752,765,o),
(660,805,o),
(557,805,c)
);
}
);
width = 827;
}
);
unicode = 102;
},
{
glyphname = g;
lastChange = "2024-04-10 01:58:59 +0000";
layers = (
{
layerId = m01;
shapes = (
{
closed = 1;
nodes = (
(218,271,o),
(181,302,o),
(181,350,c),
(181,394,o),
(222,429,o),
(275,429,c),
(327,429,o),
(368,394,o),
(368,350,c),
(368,302,o),
(331,271,o),
(275,271,c)
);
},
{
closed = 1;
nodes = (
(528,263,o),
(540,305,o),
(540,350,c),
(540,369,o),
(537,387,o),
(533,404,c),
(646,600,l),
(473,600,l),
(441,545,l),
(396,579,o),
(338,600,o),
(275,600,c),
(126,600,o),
(10,488,o),
(10,350,c),
(10,212,o),
(118,100,o),
(275,100,c),
(314,100,l),
(366,100,o),
(374,70,o),
(374,53,c),
(374,21,o),
(351,0,o),
(304,0,c),
(184,0,l),
(156,50,l),
(11,-200,l),
(358,-200,l),
(489,-200,o),
(596,-100,o),
(596,39,c),
(596,118,o),
(562,184,o),
(507,227,c)
);
}
);
width = 656;
}
);
unicode = 103;
},
{
glyphname = h;
lastChange = "2023-03-06 16:14:15 +0000";
layers = (
{
layerId = m01;
shapes = (
{
closed = 1;
nodes = (
(482,0,l),
(834,0,l),
(748,150,l),
(748,356,l),
(748,518,o),
(620,600,o),
(487,600,c),
(427,600,o),
(374,589,o),
(328,571,c),
(328,693,l),
(386,800,l),
(10,800,l),
(97,650,l),
(97,150,l),
(10,0,l),
(385,0,l),
(328,106,l),
(328,357,l),
(369,388,o),
(417,400,o),
(446,400,c),
(490,400,o),
(540,360,o),
(540,308,c),
(540,96,l)
);
}
);
width = 844;
}
);
unicode = 104;
},
{
glyphname = i;
lastChange = "2024-03-19 00:28:04 +0000";
layers = (
{
layerId = m01;
shapes = (
{
closed = 1;
nodes = (
(10,600,l),
(68,500,l),
(68,97,l),
(10,-3,l),
(385,-3,l),
(328,97,l),
(328,504,l),
(389,600,l)
);
},
{
closed = 1;
nodes = (
(88,800,l),
(192,620,l),
(295,800,l)
);
}
);
width = 399;
}
);
unicode = 105;
},
{
glyphname = j;
lastChange = "2024-04-10 15:30:05 +0000";
layers = (
{
layerId = m01;
shapes = (
{
closed = 1;
nodes = (
(346,800,l),
(450,620,l),
(554,800,l)
);
},
{
closed = 1;
nodes = (
(299,600,l),
(183,400,l),
(362,400,l),
(362,95,l),
(362,45,o),
(328,10,o),
(269,10,c),
(183,10,o),
(125,118,o),
(125,200,c),
(10,0,l),
(32,-74,o),
(105,-200,o),
(287,-200,c),
(553,-200,o),
(587,10,o),
(587,100,c),
(587,500,l),
(651,600,l)
);
}
);
width = 661;
}
);
unicode = 106;
},
{
glyphname = k;
lastChange = "2024-03-19 00:29:48 +0000";
layers = (
{
layerId = m01;
shapes = (
{
closed = 1;
nodes = (
(10,800,l),
(96,650,l),
(96,150,l),
(10,0,l),
(385,0,l),
(327,100,l),
(327,242,l),
(576,0,l),
(852,0,l),
(532,300,l),
(789,600,l),
(443,600,l),
(490,518,l),
(327,324,l),
(327,800,l)
);
}
);
width = 862;
}
);
unicode = 107;
},
{
glyphname = l;
lastChange = "2024-03-19 00:27:21 +0000";
layers = (
{
layerId = m01;
shapes = (
{
closed = 1;
nodes = (
(10,800,l),
(96,650,l),
(96,0,l),
(446,0,l),
(330,200,l),
(330,800,l)
);
}
);
width = 456;
}
);
unicode = 108;
},
{
glyphname = m;
lastChange = "2023-03-06 16:14:15 +0000";
layers = (
{
layerId = m01;
shapes = (
{
closed = 1;
nodes = (
(1002,100,l),
(1003,395,l),
(1003,501,o),
(912,600,o),
(800,600,c),
(719,600,o),
(648,577,o),
(594,535,c),
(557,574,o),
(505,600,o),
(448,600,c),
(393,600,o),
(342,589,o),
(299,569,c),
(299,600,l),
(10,600,l),
(96,450,l),
(96,150,l),
(10,0,l),
(299,0,l),
(299,361,l),
(317,379,o),
(340,391,o),
(367,391,c),
(417,391,o),
(448,355,o),
(448,319,c),
(448,0,l),
(709,0,l),
(650,99,l),
(651,361,l),
(669,379,o),
(692,391,o),
(719,391,c),
(769,391,o),
(800,355,o),
(800,319,c),
(800,0,l),
(1063,0,l)
);
}
);
width = 1073;
}
);
unicode = 109;
},
{
glyphname = n;
lastChange = "2024-03-19 00:26:41 +0000";
layers = (
{
layerId = m01;
shapes = (
{
closed = 1;
nodes = (
(479,2,l),
(830,2,l),
(745,152,l),
(745,329,l),
(745,491,o),
(651,602,o),
(494,602,c),
(434,602,o),
(378,586,o),
(327,559,c),
(327,600,l),
(10,600,l),
(96,452,l),
(97,150,l),
(11,0,l),
(327,0,l),
(327,373,l),
(356,391,o),
(387,400,o),
(418,400,c),
(485,400,o),
(537,360,o),
(537,288,c),
(537,99,l)
);
}
);
width = 840;
}
);
unicode = 110;
},
{
glyphname = o;
lastChange = "2024-04-10 15:07:37 +0000";
layers = (
{
layerId = m01;
shapes = (
{
closed = 1;
nodes = (
(262,187,o),
(207,239,o),
(207,306,c),
(207,374,o),
(262,425,o),
(333,425,c),
(401,425,o),
(459,370,o),
(459,306,c),
(459,241,o),
(401,187,o),
(333,187,c)
);
},
{
closed = 1;
nodes = (
(149,620,o),
(0,485,o),
(0,310,c),
(0,135,o),
(149,0,o),
(333,0,c),
(516,0,o),
(665,139,o),
(665,310,c),
(665,481,o),
(516,620,o),
(333,620,c)
);
}
);
width = 675;
}
);
unicode = 111;
},
{
glyphname = p;
lastChange = "2024-03-19 00:27:20 +0000";
layers = (
{
layerId = m01;
shapes = (
{
closed = 1;
nodes = (
(327,203,l),
(327,403,l),
(394,403,l),
(460,403,o),
(516,357,o),
(516,303,c),
(516,248,o),
(460,203,o),
(394,203,c)
);
},
{
closed = 1;
nodes = (
(415,603,l),
(200,603,l),
(10,603,l),
(96,453,l),
(96,-47,l),
(10,-197,l),
(385,-197,l),
(327,-90,l),
(327,3,l),
(419,3,l),
(596,3,o),
(740,137,o),
(740,303,c),
(740,468,o),
(596,603,o),
(419,603,c)
);
}
);
width = 750;
}
);
unicode = 112;
},
{
glyphname = q;
lastChange = "2023-03-06 16:14:15 +0000";
layers = (
{
layerId = m01;
shapes = (
{
closed = 1;
nodes = (
(356,200,ls),
(290,200,o),
(234,246,o),
(234,300,cs),
(234,355,o),
(290,400,o),
(356,400,cs),
(415,400,l),
(415,200,l)
);
},
{
closed = 1;
nodes = (
(762,-203,l),
(644,-42,l),
(644,450,l),
(741,600,l),
(332,600,ls),
(154,600,o),
(10,466,o),
(10,300,cs),
(10,135,o),
(154,0,o),
(332,0,cs),
(415,0,l),
(415,-203,l)
);
}
);
width = 772;
}
);
unicode = 113;
},
{
glyphname = r;
lastChange = "2024-03-19 00:27:27 +0000";
layers = (
{
layerId = m01;
shapes = (
{
closed = 1;
nodes = (
(441,600,o),
(369,560,o),
(328,500,c),
(328,600,l),
(10,600,l),
(97,450,l),
(97,150,l),
(10,0,l),
(328,0,l),
(328,256,l),
(328,335,o),
(405,400,o),
(500,400,c),
(510,400,o),
(519,399,o),
(528,398,c),
(585,300,l),
(706,516,l),
(664,567,o),
(597,600,o),
(523,600,c)
);
}
);
width = 716;
}
);
unicode = 114;
},
{
glyphname = s;
lastChange = "2024-04-10 15:30:33 +0000";
layers = (
{
layerId = m01;
shapes = (
{
closed = 1;
nodes = (
(536,591,l),
(467,620,o),
(351,637,o),
(242,617,cs),
(143,599,o),
(96,547,o),
(79,473,cs),
(62,397,o),
(105,301,o),
(235,259,cs),
(316,233,o),
(420,228,o),
(417,196,cs),
(412,139,o),
(223,161,o),
(133,247,c),
(10,2,l),
(111,30,l),
(212,-6,o),
(364,-21,o),
(454,5,cs),
(554,34,o),
(608,87,o),
(620,164,cs),
(631,233,o),
(613,335,o),
(471,379,cs),
(354,415,o),
(255,406,o),
(264,443,cs),
(276,493,o),
(420,473,o),
(526,401,c),
(633,600,l)
);
}
);
width = 643;
}
);
unicode = 115;
},
{
glyphname = t;
lastChange = "2023-03-06 16:14:15 +0000";
layers = (
{
layerId = m01;
shapes = (
{
closed = 1;
nodes = (
(362,450,l),
(535,450,l),
(622,600,l),
(362,600,l),
(362,799,l),
(10,450,l),
(130,447,l),
(130,310,l),
(130,135,o),
(278,0,o),
(462,0,c),
(478,0,l),
(622,249,l),
(525,181,o),
(362,222,o),
(362,393,c)
);
}
);
width = 632;
}
);
unicode = 116;
},
{
glyphname = u;
lastChange = "2024-04-10 15:28:12 +0000";
layers = (
{
layerId = m01;
shapes = (
{
closed = 1;
nodes = (
(790,2,l),
(704,151,l),
(703,452,l),
(789,602,l),
(473,602,l),
(473,230,l),
(444,212,o),
(413,202,o),
(382,202,c),
(315,202,o),
(263,242,o),
(263,314,c),
(263,602,l),
(-30,600,l),
(55,450,l),
(55,274,l),
(55,112,o),
(149,0,o),
(306,0,c),
(365,0,o),
(422,17,o),
(473,44,c),
(473,2,l)
);
}
);
width = 800;
}
);
unicode = 117;
},
{
glyphname = v;
lastChange = "2024-04-10 15:29:20 +0000";
layers = (
{
layerId = m01;
shapes = (
{
closed = 1;
nodes = (
(518,600,l),
(547,551,l),
(437,353,l),
(327,551,l),
(356,600,l),
(10,600,l),
(151,485,l),
(437,-10,l),
(723,485,l),
(864,600,l)
);
}
);
width = 874;
}
);
unicode = 118;
},
{
glyphname = w;
lastChange = "2024-04-10 15:07:08 +0000";
layers = (
{
layerId = m01;
shapes = (
{
closed = 1;
nodes = (
(782,600,l),
(811,550,l),
(695,350,l),
(580,550,l),
(465,350,l),
(349,550,l),
(378,600,l),
(10,600,l),
(153,481,l),
(435,-8,l),
(580,240,l),
(725,-8,l),
(1007,481,l),
(1150,600,l)
);
}
);
width = 1170;
}
);
unicode = 119;
},
{
glyphname = x;
lastChange = "2023-03-06 16:14:15 +0000";
layers = (
{
layerId = m01;
shapes = (
{
closed = 1;
nodes = (
(472,600,l),
(501,550,l),
(415,446,l),
(328,550,l),
(357,600,l),
(10,600,l),
(126,500,l),
(293,300,l),
(126,100,l),
(10,0,l),
(357,0,l),
(328,50,l),
(415,154,l),
(501,50,l),
(472,0,l),
(819,0,l),
(703,100,l),
(536,300,l),
(703,500,l),
(819,600,l)
);
}
);
width = 829;
}
);
unicode = 120;
},
{
glyphname = y;
lastChange = "2023-03-06 16:14:10 +0000";
layers = (
{
layerId = m01;
shapes = (
{
closed = 1;
nodes = (
(394,602,l),
(424,552,l),
(424,319,l),
(424,276,o),
(382,256,o),
(340,256,c),
(277,256,o),
(251,302,o),
(251,338,c),
(251,552,l),
(280,602,l),
(10,602,l),
(68,502,l),
(68,283,l),
(68,161,o),
(168,85,o),
(328,85,c),
(370,85,o),
(389,93,o),
(424,107,c),
(424,19,o),
(346,-9,o),
(308,-9,c),
(269,-9,o),
(212,2,o),
(163,52,c),
(77,-98,l),
(77,-98,o),
(152,-198,o),
(308,-198,c),
(522,-198,o),
(655,-76,o),
(655,123,c),
(655,502,l),
(712,602,l)
);
}
);
width = 722;
}
);
unicode = 121;
},
{
glyphname = z;
lastChange = "2023-03-06 16:14:15 +0000";
layers = (
{
layerId = m01;
shapes = (
{
closed = 1;
nodes = (
(10,600,l),
(140,376,l),
(183,450,l),
(397,450,l),
(12,0,l),
(762,0,l),
(618,250,l),
(573,173,l),
(363,173,l),
(736,600,l)
);
}
);
width = 772;
}
);
unicode = 122;
},
{
glyphname = e.001;
lastChange = "2023-03-06 16:14:15 +0000";
layers = (
{
layerId = m01;
shapes = (
{
closed = 1;
nodes = (
(363,423,o),
(377,422,o),
(390,418,c),
(214,262,l),
(208,276,o),
(205,290,o),
(205,305,c),
(205,372,o),
(268,423,o),
(349,423,c)
);
},
{
closed = 1;
nodes = (
(541,310,l),
(484,212,l),
(425,163,o),
(296,165,o),
(276,196,c),
(613,490,l),
(594,515,o),
(571,537,o),
(545,556,c),
(489,596,o),
(418,620,o),
(342,620,c),
(159,620,o),
(10,485,o),
(10,310,c),
(10,135,o),
(159,0,o),
(342,0,c),
(484,0,o),
(595,42,o),
(656,110,c)
);
}
);
width = 666;
}
);
},
{
glyphname = e.002;
layers = (
{
layerId = m01;
shapes = (
{
closed = 1;
nodes = (
(363,423,o),
(367,422,o),
(380,418,c),
(214,262,l),
(208,276,o),
(205,290,o),
(205,305,c),
(205,372,o),
(268,423,o),
(349,423,c)
);
},
{
closed = 1;
nodes = (
(541,310,l),
(484,212,l),
(425,163,o),
(309,155,o),
(289,186,c),
(613,490,l),
(594,515,o),
(571,537,o),
(545,556,c),
(489,596,o),
(418,620,o),
(342,620,c),
(159,620,o),
(10,485,o),
(10,310,c),
(10,135,o),
(159,0,o),
(342,0,c),
(484,0,o),
(595,42,o),
(656,110,c)
);
}
);
width = 666;
}
);
},
{
glyphname = e.003;
layers = (
{
layerId = m01;
shapes = (
{
closed = 1;
nodes = (
(367,423,o),
(412,397,o),
(428,349,c),
(201,349,l),
(218,395,o),
(262,423,o),
(314,423,cs)
);
},
{
closed = 1;
nodes = (
(628,306,ls),
(628,502,o),
(487,610,o),
(314,610,cs),
(141,610,o),
(0,485,o),
(0,306,cs),
(0,125,o),
(141,0,o),
(314,0,cs),
(515,0,l),
(623,187,l),
(314,187,ls),
(261,187,o),
(216,217,o),
(199,265,c),
(628,265,l)
);
}
);
width = 628;
}
);
},
{
glyphname = e.004;
layers = (
{
layerId = m01;
shapes = (
{
closed = 1;
nodes = (
(208,372,o),
(262,421,o),
(329,421,cs),
(334,421,o),
(339,421,o),
(344,420,c),
(233,229,l),
(217,248,o),
(208,274,o),
(208,303,cs)
);
},
{
closed = 1;
nodes = (
(451,303,l),
(451,225,o),
(396,185,o),
(329,185,cs),
(322,185,l),
(531,548,l),
(472,591,o),
(401,610,o),
(329,610,cs),
(154,610,o),
(13,484,o),
(13,303,cs),
(13,162,o),
(98,55,o),
(222,12,cs),
(256,1,o),
(291,-4,o),
(329,-4,cs),
(503,-4,o),
(645,100,o),
(645,303,c)
);
}
);
width = 658;
}
);
},
{
glyphname = q.001;
lastChange = "2023-03-06 16:14:15 +0000";
layers = (
{
layerId = m01;
shapes = (
{
closed = 1;
nodes = (
(356,219,l),
(290,219,o),
(234,265,o),
(234,319,c),
(234,374,o),
(290,419,o),
(356,419,c),
(415,419,l),
(415,219,l)
);
},
{
closed = 1;
nodes = (
(762,24,l),
(644,69,l),
(644,469,l),
(741,619,l),
(551,619,l),
(415,619,l),
(332,619,l),
(154,619,o),
(10,485,o),
(10,319,c),
(10,154,o),
(154,19,o),
(332,19,c),
(415,19,l),
(415,-184,l)
);
}
);
width = 772;
}
);
},
{
glyphname = s.001;
lastChange = "2023-03-06 16:14:15 +0000";
layers = (
{
layerId = m01;
shapes = (
{
closed = 1;
nodes = (
(185,-24,o),
(78,43,o),
(10,94,c),
(117,236,l),
(164,192,o),
(239,149,o),
(331,149,c),
(380,149,o),
(395,159,o),
(395,189,c),
(395,220,o),
(271,212,o),
(193,245,c),
(108,282,o),
(68,353,o),
(68,422,c),
(68,520,o),
(149,620,o),
(304,620,c),
(389,620,o),
(520,588,o),
(584,551,c),
(495,399,l),
(461,417,o),
(383,450,o),
(325,450,c),
(283,450,o),
(256,441,o),
(256,422,c),
(256,380,o),
(416,373,o),
(486,350,c),
(569,322,o),
(605,263,o),
(605,189,c),
(605,61,o),
(495,-24,o),
(331,-24,c)
);
}
);
width = 615;
}
);
},
{
glyphname = s.002;
lastChange = "2023-03-06 16:14:15 +0000";
layers = (
{
layerId = m01;
shapes = (
{
closed = 1;
nodes = (
(231,373,l),
(210,373,o),
(193,390,o),
(193,411,c),
(193,432,o),
(210,449,o),
(231,449,c),
(446,449,l),
(475,396,l),
(589,598,l),
(231,600,l),
(126,600,o),
(42,515,o),
(42,411,c),
(42,307,o),
(126,222,o),
(231,222,c),
(403,222,l),
(423,222,o),
(438,206,o),
(438,187,c),
(438,167,o),
(423,151,o),
(403,151,c),
(155,151,l),
(126,197,l),
(10,-2,l),
(403,0,l),
(506,0,o),
(589,82,o),
(589,185,c),
(589,288,o),
(506,373,o),
(403,373,c)
);
}
);
width = 599;
}
);
},
{
glyphname = u.001;
lastChange = "2023-03-06 16:14:15 +0000";
layers = (
{
layerId = m01;
shapes = (
{
closed = 1;
nodes = (
(807,2,l),
(721,151,l),
(720,452,l),
(806,600,l),
(513,600,l),
(513,216,l),
(478,202,o),
(462,202,o),
(422,202,cs),
(351,202,o),
(303,242,o),
(303,314,c),
(303,600,l),
(10,600,l),
(95,450,l),
(95,274,l),
(95,112,o),
(189,0,o),
(346,0,c)
);
}
);
width = 817;
}
);
},
{
glyphname = f_f_l;
lastChange = "2024-03-19 00:36:27 +0000";
layers = (
{
layerId = m01;
shapes = (
{
closed = 1;
nodes = (
(772,800,o),
(612,653,o),
(612,471,c),
(612,431,l),
(523,431,l),
(422,255,l),
(612,255,l),
(612,155,l),
(525,0,l),
(892,0,l),
(826,105,l),
(825,255,l),
(971,255,l),
(1075,431,l),
(823,431,l),
(822,471,l),
(822,535,o),
(890,590,o),
(969,590,c),
(1039,590,o),
(1098,549,o),
(1113,496,c),
(1229,697,l),
(1164,760,o),
(1072,800,o),
(969,800,c)
);
},
{
closed = 1;
nodes = (
(969,800,l),
(1181,650,l),
(1181,433,o),
(1181,217,o),
(1181,0,c),
(1531,0,l),
(1415,200,l),
(1415,800,l)
);
},
{
closed = 1;
nodes = (
(360,805,o),
(200,658,o),
(200,476,c),
(200,431,l),
(111,431,l),
(10,255,l),
(200,255,l),
(200,155,l),
(113,0,l),
(480,0,l),
(414,105,l),
(413,255,l),
(559,255,l),
(663,431,l),
(411,431,l),
(410,476,l),
(410,540,o),
(478,595,o),
(557,595,c),
(627,595,o),
(686,554,o),
(701,501,c),
(817,702,l),
(752,765,o),
(660,805,o),
(557,805,c)
);
}
);
width = 1541;
}
);
},
{
glyphname = fl;
lastChange = "2024-03-19 00:38:59 +0000";
layers = (
{
layerId = m01;
shapes = (
{
closed = 1;
nodes = (
(360,800,o),
(200,653,o),
(200,471,c),
(200,431,l),
(111,431,l),
(10,255,l),
(200,255,l),
(200,155,l),
(113,0,l),
(480,0,l),
(414,105,l),
(413,255,l),
(559,255,l),
(663,431,l),
(411,431,l),
(410,471,l),
(410,535,o),
(478,590,o),
(557,590,c),
(627,590,o),
(686,549,o),
(701,496,c),
(817,697,l),
(752,760,o),
(660,800,o),
(557,800,c)
);
},
{
closed = 1;
nodes = (
(557,800,l),
(769,650,l),
(769,433,o),
(769,217,o),
(769,0,c),
(1119,0,l),
(1003,200,l),
(1003,800,l)
);
}
);
width = 1129;
}
);
unicode = 64258;
},
{
glyphname = zero;
lastChange = "2023-03-06 16:14:15 +0000";
layers = (
{
layerId = m01;
shapes = (
{
closed = 1;
nodes = (
(600,510,l),
(622,477,o),
(632,438,o),
(632,400,cs),
(632,305,o),
(566,201,o),
(422,201,c)
);
},
{
closed = 1;
nodes = (
(212,495,o),
(277,598,o),
(420,599,c),
(243,291,l),
(222,324,o),
(212,363,o),
(212,400,cs)
);
},
{
closed = 1;
nodes = (
(767,800,l),
(421,800,ls),
(194,800,o),
(10,636,o),
(10,400,cs),
(10,279,o),
(59,177,o),
(136,107,c),
(75,0,l),
(421,0,ls),
(648,0,o),
(833,164,o),
(833,400,cs),
(833,522,o),
(785,623,o),
(706,694,c)
);
}
);
width = 843;
}
);
unicode = 48;
},
{
glyphname = one;
lastChange = "2023-03-06 16:14:15 +0000";
layers = (
{
layerId = m01;
shapes = (
{
closed = 1;
nodes = (
(383,841,l),
(10,577,l),
(124,527,l),
(124,150,l),
(39,1,l),
(498,1,l),
(383,199,l)
);
}
);
width = 508;
}
);
unicode = 49;
},
{
glyphname = two;
lastChange = "2023-03-06 20:17:42 +0000";
layers = (
{
layerId = m01;
shapes = (
{
closed = 1;
nodes = (
(659,201,l),
(717,302,l),
(892,0,l),
(46,0,l),
(252,109,o),
(557,399,o),
(490,560,cs),
(460,632,o),
(332,625,o),
(267,551,c),
(231,434,l),
(94,663,l),
(169,759,o),
(276,820,o),
(432,820,cs),
(636,820,o),
(735,690,o),
(735,578,cs),
(735,452,o),
(659,302,o),
(552,201,c)
);
}
);
width = 892;
}
);
unicode = 50;
},
{
glyphname = three;
lastChange = "2023-03-06 16:18:16 +0000";
layers = (
{
layerId = m01;
shapes = (
{
closed = 1;
nodes = (
(55,77,l),
(124,23,o),
(215,-10,o),
(315,-10,cs),
(525,-10,o),
(695,106,o),
(695,313,cs),
(695,409,o),
(644,494,o),
(562,552,c),
(705,800,l),
(7,800,l),
(166,524,l),
(218,612,l),
(364,611,l),
(264,438,l),
(279,443,o),
(296,447,o),
(315,447,cs),
(396,447,o),
(462,387,o),
(462,313,cs),
(462,236,o),
(396,181,o),
(315,181,cs),
(246,181,o),
(188,222,o),
(172,279,c)
);
}
);
width = 712;
}
);
unicode = 51;
},
{
glyphname = four;
lastChange = "2023-03-06 16:17:42 +0000";
layers = (
{
layerId = m01;
shapes = (
{
closed = 1;
nodes = (
(422,800,l),
(461,737,l),
(466,399,l),
(300,399,l),
(415,600,l),
(241,600,l),
(10,200,l),
(468,200,l),
(469,150,l),
(383,0,l),
(819,0,l),
(700,150,l),
(700,200,l),
(761,200,l),
(877,399,l),
(700,399,l),
(700,650,l),
(819,800,l)
);
}
);
width = 887;
}
);
unicode = 52;
},
{
glyphname = five;
lastChange = "2023-03-06 16:17:50 +0000";
layers = (
{
layerId = m01;
shapes = (
{
closed = 1;
nodes = (
(419,554,o),
(299,528,c),
(299,630,l),
(501,630,l),
(541,580,l),
(667,800,l),
(10,800,l),
(93,650,l),
(103,334,l),
(271,417,o),
(493,399,o),
(493,297,c),
(493,241,o),
(446,200,o),
(372,200,c),
(241,200,l),
(183,297,l),
(10,0,l),
(432,0,l),
(589,0,o),
(720,114,o),
(720,271,c),
(720,554,o)
);
}
);
width = 730;
}
);
unicode = 53;
},
{
glyphname = six;
lastChange = "2024-03-22 21:39:42 +0000";
layers = (
{
layerId = m01;
shapes = (
{
closed = 1;
nodes = (
(338,194,o),
(289,238,o),
(289,302,cs),
(289,365,o),
(338,409,o),
(399,409,cs),
(460,409,o),
(510,365,o),
(510,302,cs),
(510,238,o),
(460,194,o),
(399,194,cs)
);
},
{
closed = 1;
nodes = (
(280,899,o),
(30,721,o),
(30,400,cs),
(30,166,o),
(195,0,o),
(411,0,cs),
(567,0,o),
(740,94,o),
(740,284,cs),
(740,452,o),
(624,554,o),
(426,554,cs),
(345,554,o),
(268,528,o),
(212,463,c),
(221,566,o),
(324,649,o),
(437,649,c),
(490,643,o),
(553,600,o),
(573,577,c),
(691,765,l)
);
}
);
width = 750;
}
);
unicode = 54;
},
{
glyphname = seven;
lastChange = "2023-03-06 16:14:15 +0000";
layers = (
{
layerId = m01;
shapes = (
{
closed = 1;
nodes = (
(10,800,l),
(196,477,l),
(287,625,l),
(486,625,l),
(125,0,l),
(529,0,l),
(471,100,l),
(876,800,l)
);
}
);
width = 886;
}
);
unicode = 55;
},
{
glyphname = eight;
lastChange = "2024-03-20 13:42:33 +0000";
layers = (
{
layerId = m01;
shapes = (
{
closed = 1;
nodes = (
(404,211,ls),
(325,211,o),
(272,245,o),
(272,300,cs),
(272,355,o),
(325,388,o),
(404,388,cs),
(405,388,ls),
(484,388,o),
(537,355,o),
(537,300,cs),
(537,245,o),
(484,211,o),
(405,211,cs)
);
},
{
closed = 1;
nodes = (
(466,675,o),
(508,646,o),
(508,606,cs),
(508,566,o),
(466,537,o),
(405,537,cs),
(343,537,o),
(301,566,o),
(301,606,cs),
(301,646,o),
(343,675,o),
(405,675,cs)
);
},
{
closed = 1;
nodes = (
(683,514,o),
(711,560,o),
(711,617,cs),
(711,739,o),
(602,811,o),
(405,811,cs),
(207,811,o),
(99,739,o),
(99,617,cs),
(99,560,o),
(126,514,o),
(174,481,c),
(69,439,o),
(10,363,o),
(10,255,cs),
(10,83,o),
(158,-9,o),
(405,-9,cs),
(651,-9,o),
(799,83,o),
(799,255,cs),
(799,363,o),
(740,439,o),
(635,481,c)
);
}
);
width = 809;
}
);
unicode = 56;
},
{
glyphname = nine;
lastChange = "2024-03-20 13:42:52 +0000";
layers = (
{
layerId = m01;
shapes = (
{
closed = 1;
nodes = (
(303,442,o),
(251,477,o),
(251,537,cs),
(251,600,o),
(303,632,o),
(356,632,cs),
(408,632,o),
(460,600,o),
(460,537,cs),
(460,477,o),
(408,442,o),
(356,442,cs)
);
},
{
closed = 1;
nodes = (
(524,0,o),
(709,138,o),
(709,456,cs),
(709,665,o),
(592,810,o),
(341,810,cs),
(184,810,o),
(34,717,o),
(34,552,cs),
(34,338,o),
(212,283,o),
(319,283,cs),
(388,283,o),
(451,317,o),
(498,358,c),
(498,254,o),
(406,155,o),
(216,181,c),
(114,294,l),
(10,110,l),
(61,45,o),
(198,0,o),
(297,0,cs)
);
}
);
width = 719;
}
);
unicode = 57;
},
{
glyphname = zero.001;
lastChange = "2023-03-06 16:14:15 +0000";
layers = (
{
layerId = m01;
shapes = (
{
closed = 1;
nodes = (
(661,4,o),
(849,171,o),
(849,412,cs),
(849,555,o),
(782,673,o),
(679,744,c),
(575,565,l),
(622,525,o),
(644,467,o),
(644,412,cs),
(644,314,o),
(576,209,o),
(429,209,cs),
(409,209,o),
(390,211,o),
(373,215,c),
(268,33,l),
(318,14,o),
(372,4,o),
(429,4,cs)
);
},
{
closed = 1;
nodes = (
(284,258,l),
(237,298,o),
(215,356,o),
(215,412,cs),
(215,509,o),
(282,614,o),
(429,614,cs),
(449,614,o),
(468,612,o),
(486,608,c),
(590,790,l),
(541,809,o),
(486,819,o),
(429,819,cs),
(197,819,o),
(10,652,o),
(10,412,cs),
(10,268,o),
(77,150,o),
(180,79,c)
);
},
{
closed = 1;
nodes = (
(506,306,o),
(542,361,o),
(542,412,cs),
(542,462,o),
(506,518,o),
(429,518,cs),
(353,518,o),
(317,462,o),
(317,412,cs),
(317,361,o),
(353,306,o),
(429,306,cs)
);
}
);
width = 859;
}
);
},
{
glyphname = two.001;
layers = (
{
layerId = m01;
shapes = (
{
closed = 1;
nodes = (
(85,491,l),
(158,559,o),
(353,625,o),
(422,525,c),
(518,385,o),
(108,60,o),
(10,4,c),
(872,4,l),
(703,296,l),
(647,199,l),
(526,199,l),
(656,336,o),
(730,554,o),
(629,690,c),
(536,814,o),
(338,788,o),
(241,761,c)
);
}
);
width = 882;
}
);
},
{
glyphname = zero.002;
lastChange = "2023-03-06 16:14:15 +0000";
layers = (
{
layerId = m01;
shapes = (
{
attr = {
fill = 1;
strokeWidth = 0.964;
};
closed = 1;
nodes = (
(412,201,o),
(403,201,o),
(394,202,c),
(584,531,l),
(617,494,o),
(632,446,o),
(632,400,cs),
(632,304,o),
(566,201,o),
(421,201,cs)
);
},
{
attr = {
fill = 1;
strokeWidth = 0.964;
};
closed = 1;
nodes = (
(212,495,o),
(278,598,o),
(421,598,cs),
(431,598,o),
(440,598,o),
(449,597,c),
(259,268,l),
(227,305,o),
(212,354,o),
(212,400,cs)
);
},
{
attr = {
fill = 1;
strokeWidth = 0.964;
};
closed = 1;
nodes = (
(739,799,l),
(421,799,ls),
(194,799,o),
(10,636,o),
(10,400,cs),
(10,269,o),
(67,160,o),
(156,89,c),
(104,0,l),
(421,-1,ls),
(648,-1,o),
(833,163,o),
(833,400,cs),
(833,530,o),
(777,639,o),
(687,710,c)
);
}
);
width = 843;
}
);
},
{
glyphname = two.002;
layers = (
{
layerId = m01;
shapes = (
{
closed = 1;
nodes = (
(659,201,l),
(717,302,l),
(892,0,l),
(0,0,l),
(182,93,o),
(549,361,o),
(450,560,cs),
(418,624,o),
(316,629,o),
(245,580,c),
(169,457,l),
(44,674,l),
(116,754,o),
(221,810,o),
(334,810,cs),
(563,810,o),
(679,661,o),
(679,494,cs),
(679,395,o),
(606,277,o),
(535,201,c)
);
}
);
width = 892;
}
);
},
{
glyphname = period;
lastChange = "2023-03-06 16:14:15 +0000";
layers = (
{
layerId = m01;
shapes = (
{
closed = 1;
nodes = (
(299,0,l),
(153,250,l),
(10,0,l)
);
}
);
width = 309;
}
);
unicode = 46;
},
{
glyphname = comma;
lastChange = "2024-04-10 15:16:21 +0000";
layers = (
{
layerId = m01;
shapes = (
{
closed = 1;
nodes = (
(10,197,l),
(299,197,l),
(299,128,ls),
(298,0,o),
(195,-104,o),
(67,-105,c),
(125,-3,l)
);
}
);
width = 309;
}
);
unicode = 44;
},
{
glyphname = colon;
lastChange = "2023-03-06 16:14:15 +0000";
layers = (
{
layerId = m01;
shapes = (
{
closed = 1;
nodes = (
(10,600,l),
(156,350,l),
(299,600,l)
);
},
{
closed = 1;
nodes = (
(300,-2,l),
(154,248,l),
(11,-2,l)
);
}
);
width = 310;
}
);
unicode = 58;
},
{
glyphname = semicolon;
lastChange = "2023-03-06 16:14:15 +0000";
layers = (
{
layerId = m01;
shapes = (
{
closed = 1;
nodes = (
(10,600,l),
(156,350,l),
(299,600,l)
);
},
{
closed = 1;
nodes = (
(10,197,l),
(299,197,l),
(299,128,ls),
(298,0,o),
(195,-104,o),
(67,-105,c),
(125,-3,l)
);
}
);
width = 309;
}
);
unicode = 59;
},
{
glyphname = exclam;
lastChange = "2023-03-06 16:14:15 +0000";
layers = (
{
layerId = m01;
shapes = (
{
closed = 1;
nodes = (
(97,649,l),
(154,250,l),
(327,250,l),
(385,649,l),
(472,799,l),
(10,800,l)
);
},
{
closed = 1;
nodes = (
(125,0,l),
(356,0,l),
(241,200,l)
);
}
);
width = 482;
}
);
unicode = 33;
},
{
glyphname = question;
lastChange = "2023-03-06 19:50:47 +0000";
layers = (
{
layerId = m01;
shapes = (
{
closed = 1;
nodes = (
(400,48,o),
(373,97,o),
(345,145,c),
(262,0,l),
(428,0,l)
);
},
{
closed = 1;
nodes = (
(774,451,o),
(674,350,o),
(549,350,cs),
(408,350,l),
(346,217,l),
(183,500,l),
(520,500,ls),
(561,500,o),
(583,518,o),
(583,551,cs),
(583,581,o),
(561,600,o),
(520,600,cs),
(203,600,l),
(165,531,l),
(10,799,l),
(549,800,ls),
(673,800,o),
(774,699,o),
(774,575,cs)
);
}
);
width = 712;
}
);
unicode = 63;
},
{
glyphname = periodcentered;
lastChange = "2023-03-06 16:14:15 +0000";
layers = (
{
layerId = m01;
shapes = (
{
closed = 1;
nodes = (
(10,445,l),
(156,195,l),
(299,445,l)
);
}
);
width = 309;
}
);
unicode = 183;
},
{
glyphname = asterisk;
lastChange = "2024-04-10 01:46:05 +0000";
layers = (
{
layerId = m01;
shapes = (
{
closed = 1;
nodes = (
(259,179,l),
(340,179,l),
(340,523,l),
(259,523,l)
);
},
{
closed = 1;
nodes = (
(259,179,l),
(340,179,l),
(340,523,l),
(259,523,l)
);
},
{
closed = 1;
nodes = (
(130,300,l),
(171,230,l),
(468,402,l),
(428,472,l)
);
},
{
closed = 1;
nodes = (
(170,472,l),
(130,401,l),
(427,230,l),
(468,299,l)
);
}
);
width = 598;
}
);
unicode = 42;
},
{
glyphname = numbersign;
lastChange = "2023-03-06 16:14:15 +0000";
layers = (
{
layerId = m01;
shapes = (
{
closed = 1;
nodes = (
(847,700,l),
(732,500,l),
(616,500,l),
(732,700,l),
(442,700,l),
(326,500,l),
(183,500,l),
(125,400,l),
(268,400,l),
(211,300,l),
(67,300,l),
(10,200,l),
(153,200,l),
(38,0,l),
(326,0,l),
(442,200,l),
(558,200,l),
(443,0,l),
(732,0,l),
(847,200,l),
(991,200,l),
(1049,300,l),
(905,300,l),
(963,400,l),
(1107,400,l),
(1164,500,l),
(1021,500,l),
(1137,700,l)
);
},
{
closed = 1;
nodes = (
(558,400,l),
(674,400,l),
(616,300,l),
(500,300,l)
);
}
);
width = 1174;
}
);
unicode = 35;
},
{
glyphname = slash;
lastChange = "2023-03-06 16:14:15 +0000";
layers = (
{
layerId = m01;
shapes = (
{
closed = 1;
nodes = (
(472,800,l),
(10,0,l),
(183,0,l),
(645,800,l)
);
}
);
width = 655;
}
);
unicode = 47;
},
{
glyphname = backslash;
lastChange = "2023-03-06 16:14:15 +0000";
layers = (
{
layerId = m01;
shapes = (
{
closed = 1;
nodes = (
(472,0,l),
(645,0,l),
(183,800,l),
(10,800,l)
);
}
);
width = 655;
}
);
unicode = 92;
},
{
glyphname = hyphen;
lastChange = "2023-03-06 16:14:15 +0000";
layers = (
{
layerId = m01;
shapes = (
{
closed = 1;
nodes = (
(10,220,l),
(491,220,l),
(583,380,l),
(102,380,l)
);
}
);
width = 593;
}
);
unicode = 45;
},
{
glyphname = endash;
lastChange = "2024-04-10 01:51:20 +0000";
layers = (
{
layerId = m01;
shapes = (
{
closed = 1;
nodes = (
(10,220,l),
(725,220,l),
(817,380,l),
(102,380,l)
);
}
);
width = 827;
}
);
unicode = 8211;
},
{
glyphname = emdash;
lastChange = "2024-04-10 01:51:44 +0000";
layers = (
{
layerId = m01;
shapes = (
{
closed = 1;
nodes = (
(10,220,l),
(859,220,l),
(951,380,l),
(102,380,l)
);
}
);
width = 961;
}
);
unicode = 8212;
},
{
glyphname = underscore;
lastChange = "2024-04-10 15:18:00 +0000";
layers = (
{
layerId = m01;
shapes = (
{
closed = 1;
nodes = (
(10,0,l),
(859,0,l),
(951,160,l),
(102,160,l)
);
}
);
width = 961;
}
);
unicode = 95;
},
{
glyphname = parenleft;
lastChange = "2024-04-10 01:49:38 +0000";
layers = (
{
layerId = m01;
shapes = (
{
closed = 1;
nodes = (
(10,186,o),
(46,17,o),
(105,-100,c),
(291,-100,l),
(234,17,o),
(198,186,o),
(198,375,cs),
(198,563,o),
(234,732,o),
(291,849,c),
(105,849,l),
(46,732,o),
(10,563,o),
(10,375,cs)
);
}
);
width = 331;
}
);
unicode = 40;
},
{
glyphname = parenright;
lastChange = "2024-04-10 01:50:18 +0000";
layers = (
{
layerId = m01;
shapes = (
{
closed = 1;
nodes = (
(331,563,o),
(295,732,o),
(236,849,c),
(50,849,l),
(107,732,o),
(143,563,o),
(143,375,cs),
(143,186,o),
(107,17,o),
(50,-100,c),
(236,-100,l),
(295,17,o),
(331,186,o),
(331,375,cs)
);
}
);
width = 341;
}
);
unicode = 41;
},
{
glyphname = braceleft;
lastChange = "2024-04-10 12:27:46 +0000";
layers = (
{
layerId = m01;
shapes = (
{
closed = 1;
nodes = (
(186,898,l),
(186,648,l),
(20,398,l),
(186,148,l),
(186,-102,l),
(354,-102,l),
(437,148,l),
(270,398,l),
(437,648,l),
(354,898,l)
);
}
);
width = 457;
}
);
unicode = 123;
},
{
glyphname = braceright;
lastChange = "2024-04-10 12:28:15 +0000";
layers = (
{
layerId = m01;
shapes = (
{
closed = 1;
nodes = (
(20,648,l),
(187,398,l),
(20,148,l),
(103,-102,l),
(271,-102,l),
(271,148,l),
(437,398,l),
(271,648,l),
(271,898,l),
(103,898,l)
);
}
);
width = 457;
}
);
unicode = 125;
},
{
glyphname = bracketleft;
lastChange = "2024-04-10 12:30:02 +0000";
layers = (
{
layerId = m01;
shapes = (
{
closed = 1;
nodes = (
(20,902,l),
(20,-98,l),
(371,-98,l),
(371,73,l),
(191,73,l),
(191,731,l),
(371,731,l),
(371,902,l)
);
}
);
width = 391;
}
);
unicode = 91;
},
{
glyphname = bracketright;
lastChange = "2024-04-10 12:30:32 +0000";
layers = (
{
layerId = m01;
shapes = (
{
closed = 1;
nodes = (
(20,731,l),
(200,731,l),
(200,73,l),
(20,73,l),
(20,-98,l),
(371,-98,l),
(371,902,l),
(20,902,l)
);
}
);
width = 391;
}
);
unicode = 93;
},
{
glyphname = quotesinglbase;
lastChange = "2024-04-10 15:17:07 +0000";
layers = (
{
layerId = m01;
shapes = (
{
closed = 1;
nodes = (
(10,197,l),
(299,197,l),
(299,128,ls),
(298,0,o),
(195,-104,o),
(67,-105,c),
(125,-3,l)
);
}
);
width = 309;
}
);
unicode = 8218;
},
{
glyphname = quotedblbase;
lastChange = "2024-04-10 15:16:51 +0000";
layers = (
{
layerId = m01;
shapes = (
{
ref = comma;
},
{
ref = comma;
},
{
closed = 1;
nodes = (
(10,197,l),
(299,197,l),
(299,128,ls),
(298,0,o),
(195,-104,o),
(67,-105,c),
(125,-3,l)
);
},
{
closed = 1;
nodes = (
(370,197,l),
(659,197,l),
(659,128,ls),
(658,0,o),
(555,-104,o),
(427,-105,c),
(485,-3,l)
);
}
);
width = 669;
}
);
unicode = 8222;
},
{
glyphname = quotedblleft;
lastChange = "2024-04-10 12:23:46 +0000";
layers = (
{
layerId = m01;
shapes = (
{
closed = 1;
nodes = (
(242,600,l),
(114,601,o),
(11,705,o),
(10,833,cs),
(10,902,l),
(299,902,l),
(184,702,l)
);
},
{
closed = 1;
nodes = (
(582,600,l),
(454,601,o),
(351,705,o),
(350,833,cs),
(350,902,l),
(639,902,l),
(524,702,l)
);
}
);
width = 649;
}
);
unicode = 8220;
},
{
glyphname = quotedblright;
lastChange = "2024-04-10 12:24:35 +0000";
layers = (
{
layerId = m01;
shapes = (
{
closed = 1;
nodes = (
(350,902,l),
(639,902,l),
(639,833,ls),
(638,705,o),
(535,601,o),
(407,600,c),
(465,702,l)
);
},
{
closed = 1;
nodes = (
(10,902,l),
(299,902,l),
(299,833,ls),
(298,705,o),
(195,601,o),
(67,600,c),
(125,702,l)
);
}
);
width = 649;
}
);
unicode = 8221;
},
{
glyphname = quoteleft;
lastChange = "2024-04-10 01:52:58 +0000";
layers = (
{
layerId = m01;
shapes = (
{
closed = 1;
nodes = (
(242,600,l),
(114,601,o),
(11,705,o),
(10,833,cs),
(10,902,l),
(299,902,l),
(184,702,l)
);
}
);
width = 309;
}
);
unicode = 8216;
},
{
glyphname = quoteright;
lastChange = "2024-04-10 01:53:10 +0000";
layers = (
{
layerId = m01;
shapes = (
{
closed = 1;
nodes = (
(10,902,l),
(299,902,l),
(299,833,ls),
(298,705,o),
(195,601,o),
(67,600,c),
(125,702,l)
);
}
);
width = 309;
}
);
unicode = 8217;
},
{
glyphname = quotedbl;
lastChange = "2024-04-10 15:12:46 +0000";
layers = (
{
layerId = m01;
shapes = (
{
closed = 1;
nodes = (
(511,902,l),
(284,902,l),
(284,834,l),
(399,638,l),
(511,834,l)
);
},
{
closed = 1;
nodes = (
(237,902,l),
(10,902,l),
(10,834,l),
(125,638,l),
(237,834,l)
);
}
);
width = 521;
}
);
unicode = 34;
},
{
glyphname = quotesingle;
lastChange = "2024-04-10 15:12:58 +0000";
layers = (
{
layerId = m01;
shapes = (
{
closed = 1;
nodes = (
(237,902,l),
(10,902,l),
(10,834,l),
(125,638,l),
(237,834,l)
);
}
);
width = 247;
}
);
unicode = 39;
},
{
glyphname = at;
lastChange = "2023-03-06 16:21:24 +0000";
layers = (
{
layerId = m01;
shapes = (
{
closed = 1;
nodes = (
(445,297,l),
(388,200,l),
(269,200,o),
(172,288,o),
(172,401,c),
(172,516,o),
(269,602,o),
(388,602,c),
(637,602,l),
(580,502,l),
(580,301,l),
(823,300,l),
(829,331,o),
(833,364,o),
(833,400,c),
(833,659,o),
(649,800,o),
(421,800,c),
(194,800,o),
(10,636,o),
(10,400,c),
(10,164,o),
(194,0,o),
(421,0,c),
(581,0,o),
(720,68,o),
(788,200,c),
(445,200,l)
);
},
{
closed = 1;
nodes = (
(306,364,o),
(342,335,o),
(388,335,c),
(445,335,l),
(445,469,l),
(388,469,l),
(342,469,o),
(306,439,o),
(306,401,c)
);
}
);
width = 843;
}
);
unicode = 64;
},
{
glyphname = ampersand;
lastChange = "2023-03-06 16:14:15 +0000";
layers = (
{
layerId = m01;
shapes = (
{
closed = 1;
nodes = (
(450,149,l),
(267,149,ls),
(210,149,o),
(155,188,o),
(155,251,cs),
(155,331,o),
(226,353,o),
(273,353,c),
(335,244,l),
(482,499,l),
(364,499,l),
(277,649,l),
(449,649,l),
(509,549,l),
(654,799,l),
(19,800,l),
(199,488,l),
(95,458,o),
(10,394,o),
(10,248,cs),
(10,102,o),
(132,-3,o),
(270,-3,cs),
(712,-3,l),
(540,300,l)
);
}
);
width = 722;
}
);
unicode = 38;
},
{
glyphname = copyright;
lastChange = "2024-04-10 15:22:28 +0000";
layers = (
{
layerId = m01;
shapes = (
{
closed = 1;
nodes = (
(306,565,l),
(294,547,o),
(271,535,o),
(247,535,c),
(216,535,o),
(192,555,o),
(192,580,c),
(192,606,o),
(216,626,o),
(247,626,c),
(323,626,l),
(374,712,l),
(247,712,l),
(169,712,o),
(105,655,o),
(105,580,c),
(105,505,o),
(169,448,o),
(247,448,c),
(286,448,o),
(324,463,o),
(351,487,c)
);
},
{
attr = {
strokeWidth = 50;
};
closed = 1;
nodes = (
(371,364,o),
(469,461,o),
(469,581,cs),
(469,700,o),
(371,798,o),
(252,798,cs),
(132,798,o),
(35,700,o),
(35,581,cs),
(35,461,o),
(132,364,o),
(252,364,cs)
);
}
);
width = 504;
}
);
unicode = 169;
},
{
glyphname = registered;
lastChange = "2024-04-10 15:23:30 +0000";
layers = (
{
layerId = m01;
shapes = (
{
closed = 1;
nodes = (
(224,652,l),
(255,652,ls),
(271,652,o),
(284,639,o),
(284,623,cs),
(284,607,o),
(271,594,o),
(255,594,cs),
(224,594,l)
);
},
{
closed = 1;
nodes = (
(224,573,l),
(292,477,l),
(395,477,l),
(368,491,l),
(308,568,l),
(339,577,o),
(361,604,o),
(361,638,cs),
(361,678,o),
(328,711,o),
(287,711,cs),
(129,711,l),
(154,667,l),
(154,521,l),
(129,477,l),
(241,477,l),
(224,507,l)
);
},
{
attr = {
strokeWidth = 50;
};
closed = 1;
nodes = (
(371,368,o),
(469,465,o),
(469,585,cs),
(469,704,o),
(371,802,o),
(252,802,cs),
(132,802,o),
(35,704,o),
(35,585,cs),
(35,465,o),
(132,368,o),
(252,368,cs)
);
}
);
width = 504;
}
);
unicode = 174;
},
{
glyphname = trademark;
lastChange = "2024-04-10 15:20:17 +0000";
layers = (
{
layerId = m01;
shapes = (
{
closed = 1;
nodes = (
(4,600,l),
(66,492,l),
(87,528,l),
(149,528,l),
(149,366,l),
(118,312,l),
(264,312,l),
(232,366,l),
(232,528,l),
(295,528,l),
(316,492,l),
(378,600,l)
);
},
{
closed = 1;
nodes = (
(656,600,l),
(594,492,l),
(531,600,l),
(386,600,l),
(417,546,l),
(417,366,l),
(386,312,l),
(521,312,l),
(500,349,l),
(500,510,l),
(594,348,l),
(687,510,l),
(687,349,l),
(666,312,l),
(802,312,l),
(771,366,l),
(771,546,l),
(802,600,l)
);
}
);
width = 805;
}
);
unicode = 8482;
},
{
glyphname = degree;
lastChange = "2024-04-10 15:23:56 +0000";
layers = (
{
layerId = m01;
shapes = (
{
attr = {
strokeWidth = 50;
};
closed = 1;
nodes = (
(213,486,o),
(265,537,o),
(265,601,cs),
(265,664,o),
(213,716,o),
(150,716,cs),
(86,716,o),
(35,664,o),
(35,601,cs),
(35,537,o),
(86,486,o),
(150,486,cs)
);
}
);
width = 300;
}
);
unicode = 176;
},
{
glyphname = bar;
lastChange = "2024-04-10 12:31:18 +0000";
layers = (
{
layerId = m01;
shapes = (
{
closed = 1;
nodes = (
(20,-65,l),
(133,-65,l),
(133,867,l),
(20,867,l)
);
}
);
width = 153;
}
);
unicode = 124;
},
{
glyphname = cent;
lastChange = "2024-04-10 15:25:38 +0000";
layers = (
{
layerId = m01;
shapes = (
{
closed = 1;
nodes = (
(439,334,l),
(416,301,o),
(375,278,o),
(332,278,c),
(276,278,o),
(232,316,o),
(232,361,c),
(232,408,o),
(276,444,o),
(332,444,c),
(470,444,l),
(561,600,l),
(332,600,l),
(192,600,o),
(76,496,o),
(76,361,c),
(76,226,o),
(192,122,o),
(332,122,c),
(404,122,o),
(470,149,o),
(520,193,c)
);
},
{
closed = 1;
nodes = (
(289,66,l),
(366,66,l),
(366,671,l),
(289,671,l)
);
}
);
width = 600;
}
);
unicode = 162;
},
{
glyphname = dollar;
lastChange = "2023-03-06 16:14:15 +0000";
layers = (
{
layerId = m01;
shapes = (
{
closed = 1;
nodes = (
(469,250,l),
(469,350,l),
(565,350,ls),
(593,350,o),
(615,328,o),
(615,300,cs),
(615,273,o),
(593,250,o),
(565,250,cs)
);
},
{
closed = 1;
nodes = (
(260,450,ls),
(232,450,o),
(210,472,o),
(210,500,cs),
(210,528,o),
(232,550,o),
(260,550,cs),
(357,550,l),
(357,450,l)
);
},
{
closed = 1;
nodes = (
(469,450,l),
(469,550,l),
(650,550,l),
(699,480,l),
(815,700,l),
(469,700,l),
(526,800,l),
(299,800,l),
(357,700,l),
(225,700,ls),
(128,700,o),
(50,622,o),
(50,525,cs),
(50,428,o),
(128,350,o),
(225,350,cs),
(357,350,l),
(358,250,l),
(177,250,l),
(130,318,l),
(10,100,l),
(358,100,l),
(299,-2,l),
(526,0,l),
(469,100,l),
(610,100,ls),
(707,100,o),
(785,178,o),
(785,275,cs),
(785,372,o),
(707,450,o),
(610,450,cs)
);
}
);
width = 825;
}
);
unicode = 36;
},
{
glyphname = plus;
lastChange = "2024-04-10 02:03:07 +0000";
layers = (
{
layerId = m01;
shapes = (
{
closed = 1;
nodes = (
(67,452,l),
(0,264,l),
(232,264,o),
(465,265,o),
(697,264,c),
(763,452,l)
);
},
{
closed = 1;
nodes = (
(475,243,o),
(475,475,o),
(475,706,c),
(287,706,l),
(287,10,l),
(475,10,l)
);
}
);
width = 763;
}
);
unicode = 43;
},
{
glyphname = equal;
lastChange = "2024-04-10 02:05:13 +0000";
layers = (
{
layerId = m01;
shapes = (
{
closed = 1;
nodes = (
(130,622,l),
(63,434,l),
(295,434,o),
(428,435,o),
(660,434,c),
(726,622,l)
);
},
{
closed = 1;
nodes = (
(77,312,l),
(10,124,l),
(242,124,o),
(375,125,o),
(607,124,c),
(673,312,l)
);
}
);
width = 736;
}
);
unicode = 61;
},
{
glyphname = greater;
lastChange = "2024-04-10 12:34:38 +0000";
layers = (
{
layerId = m01;
shapes = (
{
closed = 1;
nodes = (
(190,304,l),
(20,171,l),
(20,24,l),
(378,304,l),
(20,584,l),
(20,437,l)
);
}
);
width = 398;
}
);
unicode = 62;
},
{
glyphname = less;
lastChange = "2024-04-10 12:34:24 +0000";
layers = (
{
layerId = m01;
shapes = (
{
closed = 1;
nodes = (
(378,584,l),
(20,304,l),
(378,24,l),
(378,171,l),
(208,304,l),
(378,437,l)
);
}
);
width = 398;
}
);
unicode = 60;
},
{
glyphname = asciitilde;
lastChange = "2024-04-10 01:36:29 +0000";
layers = (
{
layerId = m01;
shapes = (
{
closed = 1;
nodes = (
(57,353,o),
(144,384,o),
(265,343,cs),
(405,296,o),
(522,305,o),
(609,384,c),
(609,574,l),
(522,495,o),
(405,486,o),
(265,533,cs),
(144,574,o),
(57,543,o),
(0,495,c),
(0,305,l)
);
}
);
width = 607;
}
);
unicode = 126;
},
{
glyphname = asciicircum;
lastChange = "2024-04-10 01:43:26 +0000";
layers = (
{
layerId = m01;
shapes = (
{
closed = 1;
nodes = (
(1,416,l),
(159,416,l),
(279,535,l),
(399,416,l),
(557,416,l),
(279,693,l)
);
}
);
width = 567;
}
);
unicode = 94;
},
{
glyphname = percent;
lastChange = "2024-04-02 02:04:57 +0000";
layers = (
{
layerId = m01;
shapes = (
{
closed = 1;
nodes = (
(499,689,l),
(55,0,l),
(323,0,l),
(767,689,l)
);
},
{
closed = 1;
nodes = (
(199,462,o),
(251,514,o),
(251,578,cs),
(251,641,o),
(199,693,o),
(135,693,cs),
(72,693,o),
(20,641,o),
(20,578,cs),
(20,514,o),
(72,462,o),
(135,462,cs)
);
},
{
closed = 1;
nodes = (
(754,0,o),
(806,52,o),
(806,116,c),
(806,179,o),
(754,231,o),
(690,231,cs),
(627,231,o),
(575,179,o),
(575,116,cs),
(575,52,o),
(627,0,o),
(690,0,c)
);
}
);
width = 848;
}
);
unicode = 37;
},
